<svg width="80" height="81" viewBox="0 0 80 81" fill="none" xmlns="http://www.w3.org/2000/svg">
<path d="M4.34242 29.4393H75.7818V35.1545H4.34242V29.4393Z" fill="#BE9137" stroke="#BE9137" stroke-width="3" stroke-miterlimit="10" stroke-linecap="round" stroke-linejoin="round"/>
<path d="M4.34242 72.8H75.7818V78.5151H4.34242V72.8Z" fill="#BE9137" stroke="#BE9137" stroke-width="3" stroke-miterlimit="10" stroke-linecap="round" stroke-linejoin="round"/>
<path d="M10.0576 67.0848V40.9939V67.0848Z" fill="#BE9137"/>
<path d="M10.0576 67.0848V40.9939" stroke="#BE9137" stroke-width="3" stroke-miterlimit="10" stroke-linecap="round" stroke-linejoin="round"/>
<path d="M17.1394 40.9939V67.0848" stroke="#BE9137" stroke-width="3" stroke-miterlimit="10" stroke-linecap="round" stroke-linejoin="round"/>
<path d="M7.8212 35.1545H19.3757V40.8697H7.8212V35.1545Z" stroke="#BE9137" stroke-width="3" stroke-miterlimit="10" stroke-linecap="round" stroke-linejoin="round"/>
<path d="M7.8212 67.0848H19.3757V72.8H7.8212V67.0848Z" stroke="#BE9137" stroke-width="3" stroke-miterlimit="10" stroke-linecap="round" stroke-linejoin="round"/>
<path d="M62.8606 67.0848V40.9939" stroke="#BE9137" stroke-width="3" stroke-miterlimit="10" stroke-linecap="round" stroke-linejoin="round"/>
<path d="M69.9424 40.9939V67.0848" stroke="#BE9137" stroke-width="3" stroke-miterlimit="10" stroke-linecap="round" stroke-linejoin="round"/>
<path d="M1.98181 27.0787C1.98181 28.3212 2.97575 29.4394 4.34242 29.4394H75.7818C77.0242 29.4394 78.1424 28.4454 78.1424 27.0787V25.4636C78.1424 24.7181 77.7697 23.9727 77.0242 23.4757L44.1 2.72723C41.6151 1.11208 38.3848 1.11208 35.7758 2.72723L3.09999 23.4757C2.47878 23.8484 1.98181 24.5939 1.98181 25.4636V27.0787Z" stroke="#BE9137" stroke-width="3" stroke-miterlimit="10" stroke-linecap="round" stroke-linejoin="round"/>
<path d="M44.8455 15.5242C44.8455 18.2576 42.7333 20.3697 40 20.3697C37.2667 20.3697 35.1545 18.2576 35.1545 15.5242C35.1545 12.7909 37.2667 10.6788 40 10.6788C42.7333 10.5545 44.8455 12.7909 44.8455 15.5242Z" stroke="#BE9137" stroke-width="3" stroke-miterlimit="10" stroke-linecap="round" stroke-linejoin="round"/>
<path d="M60.6242 35.1545H72.1788V40.8697H60.6242V35.1545Z" stroke="#BE9137" stroke-width="3" stroke-miterlimit="10" stroke-linecap="round" stroke-linejoin="round"/>
<path d="M60.6242 67.0848H72.1788V72.8H60.6242V67.0848Z" stroke="#BE9137" stroke-width="3" stroke-miterlimit="10" stroke-linecap="round" stroke-linejoin="round"/>
<path d="M15.1515 15.5242V3.72119" stroke="#BE9137" stroke-width="3" stroke-miterlimit="10" stroke-linecap="round" stroke-linejoin="round"/>
<path d="M15.1515 9.31205C11.9212 7.07569 8.81514 11.5484 5.58484 9.31205C5.58484 7.44842 5.58484 5.58478 5.58484 3.72114C8.6909 5.95751 11.9212 1.48478 15.1515 3.72114V9.31205Z" stroke="#BE9137" stroke-width="2" stroke-miterlimit="10" stroke-linecap="round" stroke-linejoin="round"/>
<path d="M40 68.9484C48.2341 68.9484 54.9091 62.2734 54.9091 54.0393C54.9091 45.8053 48.2341 39.1302 40 39.1302C31.7659 39.1302 25.0909 45.8053 25.0909 54.0393C25.0909 62.2734 31.7659 68.9484 40 68.9484Z" stroke="#BE9137" stroke-width="2" stroke-miterlimit="10" stroke-linecap="round" stroke-linejoin="round"/>
<path d="M40 65.097C46.1069 65.097 51.0576 60.1463 51.0576 54.0394C51.0576 47.9325 46.1069 42.9818 40 42.9818C33.8931 42.9818 28.9424 47.9325 28.9424 54.0394C28.9424 60.1463 33.8931 65.097 40 65.097Z" stroke="#BE9137" stroke-width="2" stroke-miterlimit="10" stroke-linecap="round" stroke-linejoin="round"/>
<path d="M40 68.9484C43.8426 68.9484 46.9576 62.2734 46.9576 54.0393C46.9576 45.8053 43.8426 39.1302 40 39.1302C36.1574 39.1302 33.0424 45.8053 33.0424 54.0393C33.0424 62.2734 36.1574 68.9484 40 68.9484Z" stroke="#BE9137" stroke-width="2" stroke-miterlimit="10" stroke-linecap="round" stroke-linejoin="round"/>
<path d="M40 60.9969C48.2341 60.9969 54.9091 57.8819 54.9091 54.0394C54.9091 50.1968 48.2341 47.0818 40 47.0818C31.7659 47.0818 25.0909 50.1968 25.0909 54.0394C25.0909 57.8819 31.7659 60.9969 40 60.9969Z" stroke="#BE9137" stroke-width="2" stroke-miterlimit="10" stroke-linecap="round" stroke-linejoin="round"/>
<path d="M40 39.1302V68.9484" stroke="#BE9137" stroke-width="2" stroke-miterlimit="10" stroke-linecap="round" stroke-linejoin="round"/>
<path d="M25.0909 54.0393H54.9091" stroke="#BE9137" stroke-width="2" stroke-miterlimit="10" stroke-linecap="round" stroke-linejoin="round"/>
</svg>
