<svg width="82" height="82" viewBox="0 0 82 82" fill="none" xmlns="http://www.w3.org/2000/svg">
<g clip-path="url(#clip0_2024_233)">
<path d="M18.8626 27.9226C18.238 27.2979 17.2226 27.2979 16.5981 27.9226C15.9719 28.5488 15.9719 29.5626 16.5981 30.1872C17.2227 30.8134 18.2381 30.8134 18.8626 30.1872C19.4886 29.5626 19.4886 28.5488 18.8626 27.9226ZM40.5514 71.7049C41.2575 70.7485 41.6392 69.5962 41.6392 68.3846C41.6392 65.2939 39.1247 62.7793 36.0339 62.7793H8.80827C7.31033 62.7793 5.90272 63.3623 4.84457 64.4207C3.78593 65.479 3.20297 66.8867 3.20297 68.3846C3.20189 69.5791 3.5845 70.7424 4.29443 71.703C1.74426 73.0439 0 75.7185 0 78.7943V80.3958C0 81.2804 0.71718 81.9974 1.60156 81.9974H43.2406C44.125 81.9974 44.8421 81.2804 44.8421 80.3958V78.7943C44.8421 75.7199 43.0996 73.0464 40.5514 71.7049ZM7.10934 66.6853C7.33194 66.4616 7.59673 66.2842 7.88835 66.1635C8.17998 66.0428 8.49265 65.9811 8.80827 65.9821H36.0339C37.3585 65.9821 38.4361 67.0598 38.4361 68.3843C38.4361 69.0265 38.1862 69.6298 37.7327 70.0834C37.51 70.3071 37.2453 70.4845 36.9536 70.6052C36.662 70.7259 36.3493 70.7876 36.0337 70.7866H8.80827C7.48362 70.7866 6.40609 69.7089 6.40609 68.3844C6.40609 67.7424 6.65577 67.1389 7.10934 66.6853ZM3.20297 78.7943C3.20297 76.1451 5.35835 73.9897 8.00749 73.9897H36.8347C39.4838 73.9897 41.6392 76.1451 41.6392 78.7943H3.20297Z" fill="#BE9137"/>
<path d="M80.5092 67.2856C79.9653 66.4427 79.3164 65.6973 78.5801 65.0701L71.0968 58.5433C71.0375 58.4539 70.9694 58.3707 70.8936 58.2949C70.7671 58.1689 70.6204 58.0651 70.4596 57.9877L65.9341 54.0406L44.9872 35.7683C45.8447 34.8719 46.3168 33.6997 46.3168 32.4532C46.3168 31.1691 45.817 29.9623 44.9084 29.0539C44.5227 28.6684 44.0735 28.3522 43.5806 28.119L45.5185 26.1811C46.0584 26.3251 46.6148 26.3983 47.1737 26.3988C48.8138 26.3986 50.4542 25.7743 51.7027 24.5258C52.9132 23.3155 53.5798 21.7067 53.5798 19.9958C53.5798 18.2848 52.9132 16.676 51.7029 15.4657L38.114 1.87712C36.9037 0.666814 35.2947 0.000244141 33.5833 0.000244141C31.8727 0.000244141 30.2642 0.666814 29.0541 1.87712C27.3814 3.54979 26.8308 5.92474 27.3987 8.06155L8.06384 27.3963C7.52291 27.2522 6.96552 27.1793 6.40574 27.1792C4.69399 27.1792 3.08586 27.8453 1.87652 29.0545C-0.621275 31.5523 -0.621275 35.6166 1.87652 38.1145L15.4653 51.7035C16.7144 52.9524 18.3548 53.5768 19.9953 53.5768C21.636 53.5768 23.2764 52.9524 24.5255 51.7035C26.1982 50.0307 26.7488 47.6559 26.1809 45.5191L28.1148 43.585C28.3505 44.0766 28.6682 44.5246 29.0542 44.9097C29.9617 45.8171 31.1681 46.3169 32.452 46.3169C33.6972 46.3169 34.8689 45.8456 35.7665 44.9891L58.0773 70.6227C58.1388 70.7188 58.2105 70.8103 58.2944 70.8942C58.3231 70.9229 58.3535 70.949 58.3838 70.9749L65.0321 78.6134C65.1993 78.8106 65.3745 79.0009 65.5574 79.1837C67.3833 81.009 69.7951 81.9996 72.3272 81.9996C72.7735 81.9996 73.224 81.9689 73.6752 81.9064C76.6908 81.489 79.297 79.685 80.8252 76.9563C82.4993 73.9657 82.3747 70.1689 80.5092 67.2856ZM31.3192 4.14205C31.6158 3.84366 31.9686 3.60705 32.3573 3.44593C32.746 3.28481 33.1627 3.20236 33.5835 3.20337C34.0044 3.20223 34.4214 3.28461 34.8103 3.44574C35.1993 3.60686 35.5524 3.84353 35.8492 4.14205L49.4381 17.7308C49.7365 18.0276 49.9732 18.3806 50.1343 18.7694C50.2953 19.1582 50.3777 19.5751 50.3766 19.9959C50.3777 20.4168 50.2954 20.8337 50.1342 21.2225C49.9731 21.6113 49.7364 21.9643 49.438 22.261C48.1895 23.5097 46.1578 23.5097 44.9094 22.261L31.32 8.67158L31.3192 8.67078C30.0704 7.4222 30.0704 5.39062 31.3192 4.14205ZM22.2606 49.4386C21.0117 50.6875 18.9791 50.6876 17.7302 49.4386L4.14145 35.8498C2.89239 34.6007 2.89239 32.5687 4.14145 31.3194C4.74556 30.7152 5.54986 30.3824 6.40574 30.3824C7.26145 30.3824 8.06528 30.715 8.66923 31.3188L22.2604 44.91C23.5093 46.1584 23.5093 48.1901 22.2606 49.4386ZM29.0035 38.1668L24.5253 42.645L10.9351 29.0548L29.0541 10.9356L42.6441 24.5258L38.1578 29.0122C38.1433 29.026 38.129 29.0395 38.1136 29.0547L29.0587 38.1097C29.04 38.1282 29.0219 38.1474 29.0035 38.1668ZM34.722 41.5078L34.7126 41.5172L33.5847 42.645C33.4363 42.7942 33.2597 42.9125 33.0652 42.993C32.8708 43.0735 32.6623 43.1146 32.4518 43.114C32.2413 43.1146 32.0328 43.0735 31.8384 42.993C31.6439 42.9124 31.4674 42.7941 31.319 42.6449C31.1696 42.4964 31.0512 42.3197 30.9706 42.1251C30.89 41.9305 30.8488 41.7218 30.8494 41.5111C30.8494 41.0919 31.0094 40.6974 31.2998 40.3998L40.3968 31.3028C41.0203 30.6964 42.0283 30.704 42.6445 31.3194C42.7938 31.468 42.9121 31.6447 42.9927 31.8393C43.0733 32.0339 43.1145 32.2426 43.1139 32.4532C43.1146 32.6636 43.0734 32.8721 42.9928 33.0664C42.9122 33.2608 42.7937 33.4372 42.6443 33.5853L41.523 34.7066C41.5153 34.7141 41.5077 34.7218 41.5001 34.7295L34.722 41.5078ZM38.0385 42.721L42.7192 38.0402L62.5373 55.3267L55.3056 62.5586L38.0385 42.721ZM57.4134 64.9804L64.9566 57.4371L67.3761 59.5475L59.5212 67.4025L57.4134 64.9804ZM78.0307 75.3916C76.997 77.237 75.2495 78.455 73.2362 78.7337C71.2275 79.0117 69.2539 78.3501 67.8218 76.9186C67.6995 76.7965 67.5825 76.6693 67.4709 76.5373L67.4554 76.5192L61.6289 69.8244L69.7954 61.6577L76.4819 67.4901L76.4973 67.5034C76.9978 67.9289 77.4419 68.44 77.8188 69.0239C79.0299 70.8953 79.1148 73.4546 78.0307 75.3916Z" fill="#BE9137"/>
<path d="M30.1869 16.598C29.5614 15.9726 28.5476 15.9726 27.922 16.598L21.1269 23.3931C20.5015 24.0185 20.5015 25.0326 21.1269 25.6578C21.2754 25.8068 21.452 25.9249 21.6463 26.0054C21.8407 26.0859 22.049 26.1272 22.2594 26.1269C22.4697 26.1272 22.678 26.0859 22.8724 26.0054C23.0667 25.9249 23.2433 25.8068 23.3918 25.6578L30.1869 18.8627C30.8123 18.2375 30.8123 17.2235 30.1869 16.598Z" fill="#BE9137"/>
</g>
<defs>
<clipPath id="clip0_2024_233">
<rect width="82" height="82" fill="white"/>
</clipPath>
</defs>
</svg>
