<svg width="82" height="82" viewBox="0 0 82 82" fill="none" xmlns="http://www.w3.org/2000/svg">
<g clip-path="url(#clip0_4001_111)">
<path d="M80.7988 79.5977H53.407V68.2206C54.0942 68.413 54.8175 68.5181 55.5653 68.5181H73.981C78.4026 68.5181 81.9998 64.9208 81.9998 60.499C81.9998 59.8357 81.462 59.2979 80.7987 59.2979H77.4847L68.0491 41.8163C69.003 40.9343 69.6017 39.6739 69.6017 38.2759C69.6017 36.0297 68.0574 34.137 65.9743 33.6021V14.2616H68.9567V14.9326C68.9567 16.4857 71.3591 16.4857 71.3591 14.9326V14.2616H77.2847C81.4198 14.2616 81.4258 7.81899 77.2847 7.81899H71.3591V6.61125C71.3591 5.05821 68.9567 5.05821 68.9567 6.61125V7.81915H65.9743V6.61125C65.9743 5.05821 63.5719 5.05821 63.5719 6.61125V7.81915H53.6487V5.29845C53.6487 2.93614 51.7268 1.01427 49.3645 1.01427C48.3853 1.01427 47.4823 1.34515 46.76 1.90009C45.9903 0.755137 44.6825 0 43.2013 0C41.7202 0 40.4124 0.755137 39.6427 1.90025C38.9204 1.34531 38.0174 1.01443 37.0382 1.01443C35.4277 1.01443 34.0223 1.9081 33.2907 3.22523C32.6025 2.75357 31.7707 2.47698 30.8751 2.47698C28.5128 2.47698 26.5909 4.39885 26.5909 6.76116V7.81899H18.4281V6.61125C18.4281 5.05821 16.0257 5.05821 16.0257 6.61125V7.81915H13.0433V6.61125C13.0433 5.05821 10.6409 5.05821 10.6409 6.61125V7.81915H4.71532C0.580246 7.81915 0.57416 14.2618 4.71532 14.2618H10.6409V14.9328C10.6409 16.4858 13.0433 16.4858 13.0433 14.9328V14.2618H16.0257V33.6021C13.9424 34.137 12.3983 36.0295 12.3983 38.2759C12.3983 39.6739 12.997 40.9343 13.9511 41.8165L4.51512 59.2979H1.20117C0.537805 59.2979 0 59.8357 0 60.499C0 64.9206 3.59727 68.5179 8.01886 68.5179H26.4346C27.1824 68.5179 27.9056 68.4128 28.5929 68.2205V79.5977H1.20117C0.537805 79.5977 0 80.1355 0 80.7988C0 81.4622 0.537805 82 1.20117 82H80.7988C81.4622 82 82 81.4622 82 80.7988C82 80.1355 81.4622 79.5977 80.7988 79.5977ZM74.7549 59.2979H72.3395C71.6762 59.2979 71.1384 59.8357 71.1384 60.499C71.1384 61.1624 71.6762 61.7002 72.3395 61.7002H76.7653C76.7666 61.7002 76.7679 61.7005 76.7693 61.7005C76.7707 61.7005 76.7722 61.7002 76.7736 61.7002H79.4682C78.9168 64.2222 76.6658 66.1155 73.981 66.1155H55.5653C52.8804 66.1155 50.6294 64.222 50.078 61.7H52.7718C52.7736 61.7 52.7752 61.7004 52.7769 61.7004C52.7785 61.7004 52.78 61.7 52.7816 61.7H65.9453V59.2977H54.7912L63.6104 42.9584C64.3854 43.1482 65.1604 43.1482 65.9355 42.9584L74.7549 59.2979ZM30.9954 43.1149H51.0048V48.6548H30.9954V43.1149ZM67.1995 38.2757C67.1995 39.6116 66.1111 40.6984 64.7733 40.6984C63.4355 40.6984 62.3469 39.6116 62.3469 38.2757C62.3469 36.9399 63.4353 35.8531 64.7733 35.8531C66.1112 35.8531 67.1995 36.9399 67.1995 38.2757ZM63.5721 33.6019C61.4888 34.1368 59.9446 36.0294 59.9446 38.2757C59.9446 39.6737 60.5432 40.9342 61.4973 41.8163L53.4071 56.8049V41.9137C53.4071 41.2503 52.8693 40.7125 52.206 40.7125H51.1526C51.0493 38.3334 51.8139 36.0254 53.5167 34.3247C57.323 30.5231 60.5171 26.6892 60.5171 20.9749V16.1346C60.5171 15.4632 60.3613 14.8277 60.0844 14.2618H63.5723V33.6019H63.5721ZM77.2847 10.2215C78.3433 10.2215 78.3433 11.8594 77.2847 11.8594H71.3591V10.2215H77.2847ZM68.9567 10.2215V11.8594H65.9743V10.2215H68.9567ZM63.5721 10.2215V11.8594L53.6488 11.8543V10.2215H63.5721ZM49.3645 3.41661C50.4021 3.41661 51.2463 4.2608 51.2463 5.29845V11.8541H47.4855V5.23839C47.5177 4.22861 48.3472 3.41661 49.3645 3.41661ZM43.2013 2.40234C44.239 2.40234 45.0832 3.24525 45.0832 4.28114L45.0801 11.903C44.0843 12.1147 43.3349 12.9997 43.3349 14.0571C43.3349 15.2028 43.6415 16.2778 44.1746 17.2073C42.9422 17.9514 41.3195 17.0387 41.3195 15.6V4.28114C41.3195 3.24525 42.1637 2.40234 43.2013 2.40234ZM37.0382 3.41661C38.0557 3.41661 38.885 4.22861 38.917 5.23823V14.8052C38.8848 15.8148 38.0555 16.6269 37.0382 16.6269C36.0006 16.6269 35.1564 15.7828 35.1564 14.7451V5.29845C35.1564 4.2608 36.0006 3.41661 37.0382 3.41661ZM28.9932 6.76116C28.9932 5.7235 29.8374 4.87932 30.8751 4.87932C31.8926 4.87932 32.7218 5.69131 32.7539 6.7011V13.3428C32.7217 14.3524 31.8924 15.1646 30.8751 15.1646C29.8374 15.1646 28.9932 14.3204 28.9932 13.2827V6.76116ZM26.5909 10.2215V11.8594H18.4281V10.2215H26.5909ZM4.71532 11.8592C3.65669 11.8592 3.65669 10.2213 4.71532 10.2213H10.6409V11.8592H4.71532ZM13.0433 11.8592V10.2215H16.0257V11.8594H13.0433V11.8592ZM26.5909 14.2616V19.8727C26.5909 20.536 27.1287 21.0738 27.7921 21.0738C28.4554 21.0738 28.9932 20.536 28.9932 19.8727V17.1302C29.5616 17.4093 30.2003 17.5667 30.8751 17.5667C31.7707 17.5667 32.6025 17.2901 33.2907 16.8185C34.0223 18.1356 35.4275 19.0293 37.0382 19.0293C38.051 19.0293 38.9822 18.6753 39.7163 18.0855C40.4942 19.1713 41.7659 19.881 43.2013 19.881C44.1291 19.881 45.0206 19.5809 45.7522 19.0389C46.8379 19.8993 48.209 20.415 49.6992 20.415H51.6212V20.4414C46.3798 21.0386 42.295 25.4962 42.295 30.889C42.295 31.5524 42.8328 32.0902 43.4962 32.0902C44.1596 32.0902 44.6974 31.5524 44.6974 30.889C44.6974 26.4152 48.3422 22.7757 52.8224 22.7757C53.4858 22.7757 54.0236 22.2379 54.0236 21.5745V19.2138C54.0236 18.5504 53.4858 18.0126 52.8224 18.0126H49.6992C47.5815 18.0126 45.8466 16.3454 45.7422 14.2565C49.2727 14.2565 52.8029 14.2616 56.3332 14.2616C57.3241 14.3143 58.1146 15.1328 58.1146 16.1345V20.9747C58.1146 26.0353 55.1585 29.2891 51.8189 32.6248C49.6398 34.801 48.7213 37.6865 48.7501 40.7125H33.1552C33.2436 38.0347 32.3488 35.5505 30.8786 33.337C29.6451 31.4177 28.9931 29.1979 28.9931 26.917C28.9931 26.2536 28.4553 25.7158 27.7919 25.7158C27.1285 25.7158 26.5907 26.2536 26.5907 26.917C26.5907 29.6627 27.3765 32.3347 28.863 34.6442C30.0578 36.4932 30.8443 38.4822 30.7529 40.7125H29.794C29.1307 40.7125 28.5929 41.2503 28.5929 41.9137V56.8049L20.5027 41.8163C21.4568 40.9343 22.0554 39.6737 22.0554 38.2757C22.0554 36.0296 20.5112 34.1368 18.4279 33.6019V14.2616H26.5909ZM17.2269 35.8531C18.5648 35.8531 19.6533 36.9399 19.6533 38.2757C19.6533 39.6116 18.5648 40.6984 17.2269 40.6984C15.8889 40.6984 14.8007 39.6116 14.8007 38.2757C14.8007 36.9399 15.8889 35.8531 17.2269 35.8531ZM16.0643 42.9585C16.8393 43.1482 17.6143 43.1482 18.3893 42.9585L27.2086 59.298H7.24515L16.0643 42.9585ZM8.01886 66.1157C5.334 66.1157 3.08301 64.2222 2.53159 61.7004H5.2267C5.22798 61.7004 5.22926 61.7005 5.23054 61.7005C5.23166 61.7005 5.23295 61.7004 5.23407 61.7004H29.2194C29.2205 61.7004 29.2218 61.7005 29.2229 61.7005C29.2242 61.7005 29.2255 61.7004 29.2268 61.7004H31.9219C31.3704 64.2223 29.1194 66.1157 26.4346 66.1157H8.01886ZM30.9954 79.5977V67.0895C33.083 65.6404 34.4536 63.2273 34.4536 60.499C34.4536 59.8357 33.9158 59.2979 33.2524 59.2979H30.9954V51.057H51.0048V59.2979H48.7477C48.0844 59.2979 47.5465 59.8357 47.5465 60.499C47.5465 63.2273 48.9172 65.6404 51.0048 67.0895V79.5977H30.9954Z" fill="#BE9137"/>
</g>
<defs>
<clipPath id="clip0_4001_111">
<rect width="82" height="82" fill="white"/>
</clipPath>
</defs>
</svg>
