<svg width="78" height="82" viewBox="0 0 78 82" fill="none" xmlns="http://www.w3.org/2000/svg">
<path d="M17.3818 20.7485V32.6758M17.3818 64.9788C17.3818 67.8364 19.6182 70.0727 22.4758 70.0727H61.6121C64.4697 70.0727 66.7061 67.8364 66.7061 64.9788V7.5788C66.7061 4.72123 64.4697 2.48486 61.6121 2.48486H22.6C19.7424 2.48486 17.5061 4.72123 17.5061 7.5788V10.9333" stroke="#BE9137" stroke-width="3" stroke-miterlimit="10" stroke-linecap="round" stroke-linejoin="round"/>
<path d="M76.0243 17.7667L70.8061 74.9183C70.5576 77.7758 68.0727 79.7637 65.2152 79.5152L26.203 75.9122C23.3455 75.6637 21.3576 73.1789 21.6061 70.3213V70.0728C21.8545 70.0728 22.2273 70.197 22.6 70.197H61.7364C64.5939 70.197 66.8303 67.9607 66.8303 65.1031V11.8031L71.4273 12.1758C74.1606 12.4243 76.2727 14.9092 76.0243 17.7667Z" fill="#BE9137" stroke="#BE9137" stroke-width="3" stroke-miterlimit="10" stroke-linecap="round" stroke-linejoin="round"/>
<path d="M21.9788 39.2606C21.9788 35.1606 18.3758 31.806 14.1515 32.303C11.0455 32.6757 8.56061 35.1606 8.06364 38.2666C7.69091 40.503 8.43637 42.6151 9.80303 44.106C10.9212 45.3484 11.6667 47.0878 11.6667 48.8272V52.6787H18.2515V48.8272C18.2515 47.0878 18.997 45.3484 20.2394 43.9818C21.2333 42.7394 21.9788 41.1242 21.9788 39.2606Z" fill="#BE9137" stroke="#BE9137" stroke-width="3" stroke-miterlimit="10" stroke-linecap="round" stroke-linejoin="round"/>
<path d="M25.3334 58.394H4.46063V55.2879C4.46063 53.797 5.70306 52.6788 7.06972 52.6788H22.7243C24.2152 52.6788 25.3334 53.9213 25.3334 55.2879V58.394Z" stroke="#BE9137" stroke-width="3" stroke-miterlimit="10" stroke-linecap="round" stroke-linejoin="round"/>
<path d="M1.97577 58.3939H27.9424V64.1091H1.97577V58.3939Z" stroke="#BE9137" stroke-width="3" stroke-miterlimit="10" stroke-linecap="round" stroke-linejoin="round"/>
<path d="M27.3212 9.93945H59.5" stroke="#BE9137" stroke-width="2" stroke-miterlimit="10" stroke-linecap="round" stroke-linejoin="round"/>
<path d="M32.9121 17.0212H59.5" stroke="#BE9137" stroke-width="3" stroke-miterlimit="10" stroke-linecap="round" stroke-linejoin="round"/>
<path d="M40.9879 24.2273H59.5" stroke="#BE9137" stroke-width="3" stroke-miterlimit="10" stroke-linecap="round" stroke-linejoin="round"/>
<path d="M44.5909 31.3092H59.5" stroke="#BE9137" stroke-width="3" stroke-miterlimit="10" stroke-linecap="round" stroke-linejoin="round"/>
<path d="M45.0879 38.5153H59.5" stroke="#BE9137" stroke-width="3" stroke-miterlimit="10" stroke-linecap="round" stroke-linejoin="round"/>
<path d="M29.8061 45.7213H59.5" stroke="#BE9137" stroke-width="3" stroke-miterlimit="10" stroke-linecap="round" stroke-linejoin="round"/>
<path d="M36.5152 52.8031H59.5" stroke="#BE9137" stroke-width="3" stroke-miterlimit="10" stroke-linecap="round" stroke-linejoin="round"/>
<path d="M39.3727 59.5122C39.3727 59.5122 39.3727 66.3455 43.9697 59.5122C43.9697 59.5122 44.094 65.1031 53.2879 61.5001" stroke="#BE9137" stroke-width="3" stroke-miterlimit="10" stroke-linecap="round" stroke-linejoin="round"/>
<path d="M36.2667 29.8182L39.1243 37.5213L31.4212 34.7879" stroke="#BE9137" stroke-width="3" stroke-miterlimit="10" stroke-linecap="round" stroke-linejoin="round"/>
<path d="M31.4212 34.7879L36.2667 29.9424L9.43033 2.98183C8.93336 2.48486 8.1879 2.36062 7.56669 2.60911C5.95154 3.35456 4.83336 4.47274 4.21215 5.96365C3.83942 6.58486 4.0879 7.33032 4.58487 7.82729L31.4212 34.7879Z" stroke="#BE9137" stroke-width="3" stroke-miterlimit="10" stroke-linecap="round" stroke-linejoin="round"/>
<path d="M9.43033 2.98183L11.294 4.84547L6.44851 9.81517L4.58487 7.82729C4.0879 7.33032 3.83942 6.58486 4.21215 5.96365C4.83336 4.3485 6.07578 3.23032 7.56669 2.60911C8.1879 2.36062 8.93336 2.48486 9.43033 2.98183Z" stroke="#BE9137" stroke-width="2" stroke-miterlimit="10" stroke-linecap="round" stroke-linejoin="round"/>
<path d="M8.18789 17.1455L7.9394 15.1576L6.20001 14.9091L5.5788 14.2879C4.58486 13.2939 4.58486 11.5546 5.5788 10.5606L6.4485 9.69092" fill="#BE9137"/>
<path d="M8.18789 17.1455L7.9394 15.1576L6.20001 14.9091L5.5788 14.2879C4.58486 13.2939 4.58486 11.5546 5.5788 10.5606L6.4485 9.69092" stroke="#BE9137" stroke-width="2" stroke-miterlimit="10" stroke-linecap="round" stroke-linejoin="round"/>
</svg>
