<svg width="167" height="160" viewBox="0 0 167 160" fill="none" xmlns="http://www.w3.org/2000/svg">
<path fill-rule="evenodd" clip-rule="evenodd" d="M17.9905 159.666C8.05463 159.666 -6.62714e-06 151.611 -6.19283e-06 141.675L-7.86391e-07 17.9905C-3.52079e-07 8.05463 8.05462 3.52079e-07 17.9905 7.8639e-07L43.8519 1.91683e-06L148.422 6.48771e-06C158.357 6.92202e-06 166.412 8.05463 166.412 17.9905L166.412 25.8614C166.412 35.7973 158.357 43.8519 148.422 43.8519L61.8424 43.8519C51.9065 43.8519 43.8519 51.9065 43.8519 61.8424L43.8519 141.675C43.8519 151.611 35.7973 159.666 25.8614 159.666L17.9905 159.666Z" fill="#C9A459"/>
</svg>
