<svg width="61" height="54" viewBox="0 0 61 54" fill="none" xmlns="http://www.w3.org/2000/svg">
<path d="M55.315 46.8857C57.9767 44.2313 59.6237 40.5647 59.6211 36.5464C59.6159 28.4857 53.077 21.9537 45.0138 21.9598C41.731 21.9623 38.6874 23.0654 36.2387 24.9203M30.7742 33.4001C30.5707 34.3161 30.4566 35.2497 30.4336 36.1878C30.3628 39.0605 31.1231 41.7504 32.4899 44.0359L30.9791 49.6743C30.6341 50.9621 31.8124 52.1404 33.1 51.7953L39.5173 50.0758C41.3713 50.8318 43.4149 51.2187 45.5578 51.1423C47.8222 51.0628 50.0361 50.4517 52.0207 49.3584M10.252 13.8952C11.8162 11.5923 15.1385 10.5173 19.1639 10.5173C23.1893 10.5173 26.5115 11.5923 28.0757 13.8952M19.1639 28.059V8.12512M24.673 28.059H13.6549M10.252 25.062C12.3238 25.0642 14.0729 23.6838 14.6403 21.8011C14.8511 21.1015 14.3216 20.3972 13.5909 20.3972H6.91309C6.18243 20.3972 5.65274 21.1015 5.86368 21.8011C6.43098 23.6839 8.18024 25.0643 10.252 25.062ZM28.0759 25.062C26.0041 25.0642 24.255 23.6838 23.6875 21.8011C23.4767 21.1015 24.0063 20.3972 24.737 20.3972H31.4148C32.1454 20.3972 32.6751 21.1015 32.4642 21.8011C31.8968 23.6839 30.1476 25.0643 28.0759 25.062Z" stroke="#BE9137" stroke-width="2.5" stroke-miterlimit="10" stroke-linecap="round" stroke-linejoin="round"/>
<path d="M41.1386 32.2213C41.1386 32.0373 41.1514 31.8564 41.1761 31.6792C41.4434 29.7636 43.1069 28.2954 45.1052 28.3356C47.1267 28.3764 48.8013 29.9953 48.9061 32.0145C49.0222 34.252 47.24 36.1076 45.025 36.1076V40.1715M6.72324 7.2954C3.4366 10.5315 1.37891 15.0149 1.37891 19.9288C1.37891 27.887 6.60629 34.6239 13.8145 36.8945L17.6641 43.5621C18.3307 44.7167 19.9971 44.7167 20.6637 43.5621L24.5134 36.8945C31.7216 34.6239 36.9489 27.887 36.9489 19.9288C36.9489 10.1841 29.1117 2.26982 19.3966 2.14536C15.9566 2.1013 12.7148 3.0688 9.95422 4.76544" stroke="#BE9137" stroke-width="2.5" stroke-miterlimit="10" stroke-linecap="round" stroke-linejoin="round"/>
<path d="M6.91238 20.3973L10.252 13.8951L13.5916 20.3973M31.4154 20.3973L28.0759 13.8951L24.7362 20.3973" stroke="#BE9137" stroke-width="2.5" stroke-miterlimit="10" stroke-linecap="round" stroke-linejoin="round"/>
</svg>
