<svg width="61" height="40" viewBox="0 0 61 40" fill="none" xmlns="http://www.w3.org/2000/svg">
<path d="M20.4594 19.7257C19.4256 18.8496 18.2508 18.1447 16.9732 17.6496C18.583 16.352 19.6261 14.3551 19.6261 12.123C19.6261 8.19784 16.4513 5.02299 12.5261 5.02299C8.60095 5.02299 5.4261 8.19784 5.4261 12.123C5.4261 14.3547 6.45873 16.3523 8.07796 17.6504C3.49638 19.4302 0.25 23.8827 0.25 29.0878V29.8713C0.25 29.9645 0.294071 30.0368 0.338064 30.0808C0.382056 30.1247 0.45431 30.1688 0.547487 30.1688H14.7852C14.7217 30.7435 14.6861 31.334 14.6861 31.9251V32.7324C14.6861 36.3608 17.6235 39.2982 21.2519 39.2982H39.6531C43.2815 39.2982 46.2189 36.3608 46.2189 32.7324V31.9251C46.2189 31.334 46.1833 30.7435 46.1198 30.1688H60.4525C60.5457 30.1688 60.618 30.1247 60.6619 30.0808C60.7059 30.0368 60.75 29.9645 60.75 29.8713L60.75 29.0878L60.75 29.0867C60.7265 23.871 57.4909 19.4176 52.9087 17.638C54.5187 16.3404 55.562 14.3434 55.562 12.1111C55.562 8.18597 52.3872 5.01112 48.462 5.01112C44.5368 5.01112 41.362 8.18597 41.362 12.1111C41.362 14.343 42.3948 16.3407 44.0142 17.6388C42.7145 18.1441 41.5185 18.861 40.4803 19.7592C39.0219 18.5511 37.3393 17.6007 35.5078 16.9836C37.8341 15.3732 39.3689 12.6749 39.3689 9.62994C39.3689 4.69566 35.3749 0.70166 30.4406 0.70166C25.5061 0.70166 21.5124 4.70776 21.5124 9.62994C21.5124 12.6753 23.0371 15.3746 25.3739 16.9852C23.5653 17.6007 21.9049 18.5393 20.4594 19.7257ZM43.7615 12.0993C43.7615 9.50683 45.8696 7.39873 48.462 7.39873C51.0545 7.39873 53.1625 9.50683 53.1625 12.0993C53.1625 14.6561 51.1013 16.742 48.5542 16.7998H48.3693C45.8119 16.7536 43.7615 14.6691 43.7615 12.0993ZM23.8881 9.62994C23.8881 6.02839 26.8154 3.10115 30.4169 3.10115C34.0184 3.10115 36.9457 6.02839 36.9457 9.62994C36.9457 13.1031 34.2165 15.949 30.8015 16.1469H30.0323C26.6173 15.949 23.8881 13.1031 23.8881 9.62994ZM7.78997 12.0993C7.78997 9.50683 9.89806 7.39873 12.4905 7.39873C15.0829 7.39873 17.191 9.50683 17.191 12.0993C17.191 14.6561 15.1298 16.742 12.5827 16.7998H12.3978C9.85185 16.7536 7.78997 14.6687 7.78997 12.0993ZM18.671 21.3849C17.0652 23.1837 15.8602 25.3615 15.2069 27.7575H2.70498C3.34946 22.9579 7.45623 19.2338 12.4202 19.1993H12.5613C14.8755 19.2106 16.9976 20.0346 18.671 21.3849ZM43.7957 32.7324C43.7957 35.0281 41.925 36.8987 39.6294 36.8987H21.2281C18.9325 36.8987 17.0618 35.0281 17.0618 32.7324V31.9251C17.0618 24.6931 22.8347 18.7758 30.0179 18.5585C30.1554 18.5701 30.3009 18.5701 30.4235 18.5701H30.4288H30.4341C30.5566 18.5701 30.7021 18.5701 30.8396 18.5585C38.0228 18.7758 43.7957 24.6931 43.7957 31.9251V32.7324ZM58.2475 27.7575H45.6504C44.998 25.3737 43.8142 23.2279 42.2201 21.4313C43.9052 20.0485 46.0515 19.2219 48.392 19.1993H48.5324C53.4963 19.2338 57.6031 22.9579 58.2475 27.7575Z" fill="#BE9137" stroke="#BE9137" stroke-width="0.5"/>
</svg>
